<?xml version="1.0" standalone="no"?>
<!DOCTYPE svg PUBLIC "-//W3C//DTD SVG 20010904//EN"
 "http://www.w3.org/TR/2001/REC-SVG-20010904/DTD/svg10.dtd">
<svg version="1.0" xmlns="http://www.w3.org/2000/svg"
 width="666.000000pt" height="666.000000pt" viewBox="0 0 666.000000 666.000000"
 preserveAspectRatio="xMidYMid meet">
<metadata>
Created by potrace 1.14, written by Peter Selinger 2001-2017
</metadata>
<g transform="translate(0.000000,666.000000) scale(0.100000,-0.100000)"
fill="#000000" stroke="none">
<path d="M448 6623 c-6 -7 -23 -13 -39 -13 -24 0 -29 -4 -29 -25 0 -20 -5 -25
-25 -25 -14 0 -28 -7 -31 -15 -4 -8 -12 -15 -20 -15 -8 0 -23 -8 -33 -17 -11
-10 -42 -38 -70 -63 -28 -25 -51 -50 -51 -56 0 -7 -7 -14 -15 -18 -8 -3 -15
-14 -15 -24 0 -11 -7 -25 -16 -33 -8 -7 -13 -21 -11 -31 3 -10 -1 -22 -9 -26
-12 -7 -14 -427 -14 -2932 0 -1986 3 -2927 10 -2934 5 -5 10 -20 10 -32 0 -12
7 -27 15 -34 8 -7 15 -17 15 -23 0 -12 9 -23 90 -107 35 -36 68 -65 73 -65 5
0 14 -8 21 -17 7 -10 23 -18 35 -18 11 0 21 -4 21 -10 0 -5 14 -10 31 -10 39
0 69 -16 69 -38 0 -16 166 -17 2897 -15 1964 2 2900 6 2907 13 5 5 22 10 37
10 15 0 29 7 33 15 3 8 12 15 20 15 34 0 186 119 186 146 0 6 6 17 14 24 8 6
12 18 9 26 -5 13 2 32 39 107 12 25 11 5868 -2 5881 -5 5 -10 20 -10 32 0 12
-7 27 -15 34 -8 7 -15 18 -15 26 0 7 -6 17 -13 21 -7 4 -20 17 -28 29 -11 17
-83 83 -149 137 -7 7 -25 14 -40 17 -16 3 -26 13 -28 28 -3 17 -10 22 -31 22
-15 0 -32 5 -37 10 -16 16 -5773 19 -5786 3z m5793 -294 c22 8 31 6 45 -10 9
-10 21 -19 26 -19 15 0 47 -43 48 -62 0 -9 5 -20 10 -23 6 -3 10 -21 10 -40 0
-19 -4 -37 -10 -40 -5 -3 -10 -17 -10 -30 0 -15 -13 -34 -35 -52 -30 -25 -44
-29 -110 -32 -71 -2 -77 -1 -96 23 -11 14 -27 26 -34 26 -8 0 -20 23 -29 54
-15 50 -15 59 0 98 15 41 32 60 84 100 17 13 28 14 48 7 16 -6 35 -6 53 0z
m-5693 -18 c2 -6 16 -18 31 -25 17 -10 32 -31 44 -64 17 -47 17 -51 0 -93 -9
-24 -32 -58 -50 -75 -29 -27 -42 -32 -104 -36 -54 -4 -72 -2 -76 8 -3 8 -11
14 -18 14 -19 0 -55 48 -55 74 0 11 -7 30 -15 40 -12 16 -12 23 -1 45 7 14 21
43 30 64 8 20 22 37 30 37 7 0 19 6 25 14 15 18 153 16 159 -3z m2912 -31 c0
-6 49 -9 118 -9 123 1 176 -7 166 -23 -4 -6 15 -9 47 -8 90 3 107 1 123 -15 9
-10 31 -15 60 -13 32 1 52 -4 66 -17 14 -13 28 -16 54 -11 28 5 40 2 56 -14
14 -14 31 -20 56 -18 25 1 39 -3 45 -15 7 -12 23 -17 49 -17 29 0 40 -4 40
-15 0 -11 11 -15 40 -15 29 0 40 -4 40 -15 0 -11 7 -14 24 -9 18 4 30 0 43
-15 9 -12 29 -21 44 -21 16 0 29 -7 33 -16 4 -10 14 -14 26 -11 14 3 24 -1 31
-15 7 -13 17 -18 30 -15 13 3 23 -2 30 -15 7 -13 17 -18 30 -15 12 3 23 -2 29
-14 6 -10 17 -19 26 -19 8 0 24 -9 36 -20 12 -11 30 -20 40 -20 11 0 29 -11
42 -25 13 -14 28 -25 34 -25 24 0 61 -23 65 -41 3 -11 14 -19 27 -19 13 0 36
-15 54 -35 18 -19 40 -35 49 -35 10 0 40 -23 67 -52 28 -29 50 -49 50 -44 0
14 75 -51 186 -161 117 -116 188 -198 198 -229 3 -11 19 -27 34 -36 15 -9 38
-37 51 -62 12 -25 31 -52 42 -60 11 -8 30 -31 41 -52 11 -22 27 -43 34 -47 8
-4 14 -14 14 -21 0 -7 19 -42 43 -77 23 -35 49 -80 57 -99 7 -19 20 -39 27
-43 7 -4 13 -16 13 -26 0 -10 7 -24 15 -31 8 -7 15 -20 15 -30 0 -10 7 -23 15
-30 8 -7 15 -21 15 -32 0 -11 9 -31 20 -45 11 -14 20 -34 20 -44 0 -10 5 -21
10 -24 6 -3 10 -19 10 -34 0 -16 7 -34 15 -41 8 -7 15 -20 15 -29 0 -9 7 -29
15 -44 8 -15 17 -43 21 -63 3 -19 10 -37 15 -40 5 -3 9 -20 9 -37 0 -18 7 -41
15 -51 8 -11 15 -34 15 -52 0 -17 7 -49 16 -70 10 -24 14 -53 11 -79 -4 -29
-1 -45 11 -58 13 -14 17 -38 17 -96 1 -47 6 -85 15 -101 12 -20 15 -82 15
-326 0 -270 -2 -304 -17 -321 -13 -14 -16 -30 -11 -73 5 -57 -11 -140 -27
-140 -5 0 -7 -13 -4 -30 8 -37 -4 -103 -17 -95 -5 4 -9 -15 -9 -43 0 -27 -7
-63 -15 -78 -8 -16 -15 -42 -15 -57 0 -15 -7 -30 -15 -33 -10 -4 -15 -20 -15
-44 0 -22 -4 -41 -9 -44 -5 -3 -12 -21 -15 -40 -4 -19 -13 -39 -21 -46 -8 -7
-15 -25 -15 -41 0 -15 -4 -30 -9 -34 -5 -3 -12 -18 -16 -34 -3 -16 -13 -32
-21 -35 -8 -3 -14 -13 -14 -22 0 -20 -68 -162 -81 -170 -5 -3 -9 -14 -9 -24 0
-10 -6 -23 -13 -27 -7 -4 -19 -24 -27 -43 -7 -19 -23 -47 -34 -61 -12 -15 -30
-42 -41 -60 -44 -74 -58 -95 -80 -121 -13 -16 -26 -36 -29 -45 -3 -10 -19 -27
-34 -37 -16 -10 -38 -37 -50 -60 -24 -43 -79 -104 -206 -224 -42 -41 -84 -85
-93 -99 -18 -27 -123 -109 -135 -105 -4 1 -18 -13 -32 -31 -26 -34 -79 -70
-89 -61 -3 3 -15 -8 -28 -25 -12 -16 -36 -35 -53 -42 -17 -7 -41 -24 -54 -37
-12 -13 -29 -22 -36 -19 -8 3 -24 -5 -37 -19 -12 -13 -28 -24 -34 -24 -7 0
-20 -9 -30 -20 -10 -11 -26 -20 -35 -20 -10 0 -20 -7 -24 -15 -3 -8 -16 -15
-30 -15 -13 0 -26 -7 -30 -15 -3 -8 -16 -15 -30 -15 -13 0 -26 -7 -30 -15 -3
-8 -14 -15 -24 -15 -11 0 -25 -7 -32 -15 -7 -9 -21 -13 -30 -10 -9 3 -23 -1
-30 -10 -7 -8 -24 -15 -39 -15 -15 0 -35 -9 -44 -21 -13 -15 -25 -19 -42 -15
-15 4 -25 1 -29 -9 -3 -9 -18 -15 -40 -15 -20 0 -36 -6 -39 -14 -3 -8 -20 -14
-41 -14 -20 0 -46 -9 -61 -20 -19 -15 -35 -19 -61 -15 -26 4 -38 1 -48 -12
-10 -14 -25 -18 -60 -17 -31 2 -52 -3 -62 -13 -16 -15 -38 -18 -106 -15 -21 1
-38 -3 -38 -8 0 -16 -49 -24 -144 -23 -49 0 -94 -3 -100 -6 -25 -16 -275 -22
-381 -9 -33 4 -94 9 -135 11 -111 6 -166 15 -149 26 9 6 -15 8 -65 8 -63 -1
-82 2 -92 15 -8 12 -25 16 -59 14 -35 -1 -51 3 -60 16 -9 12 -25 16 -54 15
-30 -2 -44 2 -54 16 -10 13 -21 16 -38 12 -14 -4 -37 0 -53 8 -16 8 -37 15
-47 15 -10 0 -27 10 -38 21 -14 16 -27 20 -45 15 -19 -5 -28 -1 -36 14 -7 14
-21 20 -44 20 -22 0 -36 6 -40 16 -4 10 -13 13 -25 9 -14 -4 -23 0 -30 14 -7
12 -18 17 -29 14 -10 -2 -24 3 -31 11 -8 9 -21 16 -31 16 -10 0 -23 7 -30 15
-7 8 -20 15 -30 15 -10 0 -20 7 -24 15 -3 8 -14 15 -24 15 -10 0 -27 9 -37 20
-10 11 -25 20 -33 20 -8 0 -23 12 -34 26 -12 14 -27 23 -35 20 -7 -3 -28 8
-45 24 -17 16 -34 27 -39 24 -4 -2 -25 13 -45 35 -21 21 -43 37 -49 34 -7 -2
-34 17 -60 43 -26 26 -63 56 -82 67 -20 10 -102 85 -182 165 -151 152 -221
231 -221 250 0 6 -9 16 -21 22 -11 6 -36 35 -55 63 -54 81 -81 120 -102 147
-11 14 -27 41 -37 60 -10 19 -24 39 -31 43 -8 4 -14 16 -14 26 0 11 -6 21 -14
24 -7 3 -17 18 -20 34 -4 15 -15 39 -24 53 -28 42 -52 93 -52 110 0 8 -9 21
-20 28 -11 7 -20 19 -20 27 0 13 -20 65 -41 107 -5 10 -9 28 -9 41 0 12 -9 30
-20 40 -11 9 -20 29 -20 44 0 16 -7 37 -15 47 -8 11 -15 31 -15 45 0 14 -7 35
-15 45 -8 11 -15 34 -15 52 0 18 -4 35 -9 39 -6 3 -13 27 -16 53 -3 26 -11 56
-17 66 -5 11 -10 48 -9 83 0 35 -3 62 -8 59 -15 -10 -22 26 -22 114 0 56 -3
87 -12 92 -18 11 -23 532 -6 573 7 17 14 66 15 111 1 45 7 91 15 105 7 13 14
51 16 84 2 39 8 64 18 71 10 7 15 28 15 57 0 27 6 52 15 61 8 8 15 32 15 54 0
23 6 45 15 52 8 7 15 27 15 46 0 18 4 35 9 38 5 3 12 22 15 41 4 20 14 39 22
42 7 3 14 17 14 32 0 15 11 51 25 79 14 29 25 55 25 59 0 15 103 213 111 213
5 0 9 8 9 19 0 10 7 24 15 31 8 7 15 18 15 25 0 7 7 19 17 26 9 8 25 33 35 57
10 23 23 42 28 42 5 0 23 27 41 60 17 33 35 60 39 60 4 0 24 25 43 55 20 30
48 62 62 71 14 9 25 22 25 29 0 13 188 225 220 248 12 8 45 38 75 66 29 28 59
51 65 51 7 0 35 22 62 50 30 30 54 47 63 44 9 -4 21 5 32 25 10 17 34 37 53
45 19 8 43 24 53 35 9 12 31 24 47 28 17 3 35 14 41 24 5 11 17 19 25 19 9 0
23 9 32 20 10 11 30 22 47 24 16 3 35 12 41 21 6 8 18 15 26 15 9 0 21 7 28
15 7 8 23 15 35 15 13 0 25 7 29 15 3 8 17 15 31 15 14 0 28 6 30 13 3 6 17
13 31 13 14 1 34 11 44 22 13 13 27 18 44 15 19 -4 26 -1 26 11 0 12 9 16 35
16 22 0 38 6 41 15 4 10 20 15 44 15 24 0 40 5 44 15 3 10 19 15 47 15 28 0
46 6 54 17 9 12 25 17 56 16 29 -2 46 3 54 14 8 11 27 15 64 15 34 -1 58 3 67
13 10 9 36 14 84 13 51 0 73 4 85 16 13 13 40 15 147 15 72 0 135 4 139 8 12
12 239 14 239 3z m-2932 -5651 c2 -5 12 -9 21 -9 45 0 102 -121 82 -173 -6
-15 -15 -27 -21 -27 -5 0 -10 -5 -10 -11 0 -5 -12 -26 -27 -45 -23 -28 -35
-34 -65 -34 -24 0 -38 -5 -38 -12 0 -10 -2 -10 -9 0 -4 7 -23 14 -42 14 -37 0
-99 49 -99 77 0 9 -7 29 -15 45 -14 26 -14 31 0 52 8 13 15 31 15 41 1 24 34
63 54 63 9 0 25 9 35 19 15 15 28 18 67 13 27 -2 51 -9 52 -13z m5765 -10 c35
-22 53 -42 67 -75 22 -50 26 -89 10 -99 -5 -3 -10 -15 -10 -26 0 -33 -67 -89
-106 -89 -20 0 -34 -5 -35 -12 0 -10 -2 -10 -6 0 -2 6 -20 12 -39 12 -26 0
-43 9 -72 38 -50 49 -68 108 -48 154 8 18 17 41 20 50 7 24 77 66 117 71 19 2
39 4 44 5 6 1 32 -12 58 -29z"/>
<path d="M2410 5678 c-12 -10 -37 -18 -56 -18 -19 0 -34 -4 -34 -10 0 -5 -15
-10 -33 -10 -21 0 -36 -7 -45 -20 -7 -11 -19 -20 -28 -20 -9 0 -27 -9 -41 -20
-14 -11 -34 -20 -44 -20 -10 0 -28 -11 -41 -24 -13 -14 -34 -26 -48 -28 -14
-2 -30 -13 -37 -27 -6 -14 -27 -34 -46 -45 -91 -56 -222 -182 -301 -289 -32
-43 -64 -81 -71 -84 -8 -2 -26 -29 -41 -59 -38 -76 -40 -173 -4 -239 13 -25
28 -45 32 -45 3 0 20 -11 36 -25 18 -15 37 -23 46 -19 10 4 18 0 22 -10 3 -9
17 -16 30 -16 14 0 27 -7 30 -15 4 -8 16 -15 29 -15 13 0 25 -7 29 -15 3 -8
16 -15 28 -15 13 0 29 -9 36 -21 7 -11 18 -19 25 -16 6 2 22 -9 34 -24 15 -17
30 -25 42 -22 13 3 25 -5 40 -26 12 -17 29 -31 38 -31 20 0 83 -39 83 -52 0
-14 22 -33 44 -36 27 -5 61 -32 79 -64 9 -15 31 -33 49 -41 32 -14 169 -132
177 -152 7 -18 163 -164 182 -170 11 -4 19 -13 19 -20 0 -19 55 -81 91 -102
34 -20 35 -30 12 -72 -22 -38 -82 -60 -96 -36 -4 8 -21 15 -37 15 -17 0 -33 7
-38 17 -6 10 -22 16 -40 16 -18 0 -34 7 -37 15 -3 9 -13 12 -30 8 -18 -5 -28
-1 -37 14 -9 13 -24 20 -45 20 -19 0 -36 7 -41 16 -6 10 -22 16 -46 16 -21 0
-39 5 -42 11 -2 7 -20 12 -40 13 -23 0 -40 7 -46 17 -6 11 -22 17 -48 17 -26
0 -42 6 -48 17 -7 12 -17 14 -41 10 -24 -5 -36 -2 -51 13 -15 15 -27 18 -50
13 -24 -4 -39 0 -62 17 -25 18 -39 21 -74 16 -33 -4 -47 -2 -60 12 -13 13 -37
17 -98 18 -54 1 -83 6 -90 16 -16 21 -416 19 -432 -2 -8 -9 -27 -14 -52 -13
-28 1 -45 -4 -58 -18 -9 -10 -30 -19 -45 -19 -29 0 -59 -31 -59 -61 0 -9 -7
-22 -15 -29 -8 -7 -15 -23 -15 -35 0 -12 -7 -28 -15 -35 -8 -7 -15 -27 -15
-44 0 -17 -6 -40 -13 -51 -8 -12 -14 -53 -15 -97 -1 -42 -6 -88 -11 -101 -6
-14 -7 -50 -4 -80 4 -35 2 -57 -6 -61 -16 -10 -14 -35 4 -52 15 -15 21 -89 16
-181 -2 -24 2 -43 7 -43 13 0 31 -75 25 -100 -3 -11 2 -26 11 -35 8 -9 18 -32
21 -53 4 -20 11 -46 16 -57 5 -11 12 -31 14 -45 3 -14 11 -38 19 -55 12 -27
20 -45 40 -95 31 -77 112 -129 203 -130 28 0 55 5 58 11 4 6 14 8 21 5 9 -3
30 9 50 29 20 21 45 35 59 35 13 0 32 11 43 25 11 14 27 25 36 25 8 0 20 9 26
20 6 11 19 20 29 20 11 0 21 7 25 15 3 8 16 15 30 15 13 0 26 7 30 15 3 8 16
15 30 15 13 0 27 7 30 16 4 11 13 14 29 10 16 -4 26 1 35 15 8 13 19 18 31 14
10 -3 23 1 30 9 6 7 23 14 38 14 14 0 30 7 35 16 6 10 22 16 46 16 26 0 41 6
50 20 9 15 19 19 38 14 19 -5 29 -1 41 15 12 18 21 21 45 16 22 -5 33 -2 43
11 9 13 24 18 48 16 24 -2 37 2 41 14 5 12 14 15 39 10 26 -5 39 -1 58 15 18
15 32 19 58 15 24 -4 41 1 62 16 21 15 41 21 69 20 26 -2 46 3 56 13 10 9 31
15 57 14 23 -1 51 1 62 5 18 6 24 0 43 -43 12 -28 22 -53 22 -56 0 -10 -73
-53 -84 -49 -7 3 -19 -7 -26 -22 -15 -27 -80 -76 -116 -88 -11 -3 -27 -17 -34
-30 -12 -23 -96 -91 -113 -91 -4 0 -24 -19 -45 -42 -20 -23 -64 -65 -97 -94
-93 -81 -257 -242 -287 -281 -16 -20 -50 -58 -78 -85 -27 -26 -50 -54 -50 -61
0 -7 -18 -32 -40 -54 -22 -23 -40 -49 -40 -57 0 -8 -6 -22 -14 -30 -22 -25
-76 -132 -76 -150 0 -10 -4 -21 -9 -26 -12 -13 -41 -129 -41 -166 0 -16 -4
-29 -10 -29 -5 0 -10 -7 -10 -15 0 -8 4 -15 10 -15 5 0 19 -19 31 -43 12 -23
39 -60 59 -82 21 -22 49 -51 62 -65 13 -14 37 -36 53 -50 17 -14 38 -37 47
-51 9 -14 30 -29 46 -32 16 -3 40 -17 53 -31 13 -14 30 -26 37 -26 6 0 21 -9
33 -21 11 -11 25 -19 32 -17 6 3 19 -4 29 -14 10 -10 25 -18 33 -18 8 0 15 -4
15 -10 0 -5 14 -10 30 -10 18 0 33 -6 36 -15 4 -10 14 -13 29 -9 16 4 27 -1
38 -17 13 -17 22 -20 46 -16 24 5 34 2 45 -15 11 -16 21 -19 41 -14 33 9 65
-1 65 -19 0 -11 14 -14 59 -12 43 1 64 -2 77 -15 16 -14 38 -16 136 -14 128 4
133 6 198 80 l34 39 1 260 c1 217 4 262 16 271 12 8 15 33 15 100 0 65 4 91
14 100 10 7 15 30 15 67 0 39 5 63 17 76 12 13 15 29 11 59 -4 33 -1 46 15 62
16 16 19 29 15 60 -3 24 -1 42 6 46 6 4 11 19 11 34 0 15 9 45 20 67 11 22 20
51 20 65 0 14 6 34 13 45 7 11 14 33 15 49 1 16 6 34 11 40 4 6 11 27 15 47 3
20 15 47 26 59 11 13 20 29 20 37 0 17 16 17 23 -1 4 -10 24 -16 54 -18 l48
-3 0 -111 c0 -77 4 -116 13 -127 9 -10 15 -54 17 -124 2 -76 9 -118 21 -142
12 -25 15 -46 10 -87 -3 -30 -2 -54 3 -54 17 0 34 -60 27 -100 -5 -29 -2 -41
9 -48 9 -5 18 -29 22 -62 3 -30 12 -65 20 -79 7 -15 13 -40 13 -57 0 -17 7
-37 15 -44 8 -7 15 -27 15 -44 0 -17 7 -40 15 -50 8 -11 15 -32 15 -48 0 -15
4 -28 9 -28 5 0 13 -10 16 -22 4 -13 14 -39 22 -58 9 -19 24 -51 32 -70 9 -19
18 -37 21 -40 5 -5 26 -42 61 -105 12 -22 41 -58 64 -80 23 -22 50 -52 60 -67
10 -17 22 -25 31 -21 9 3 26 0 39 -7 17 -9 46 -11 102 -5 43 4 100 8 126 8 27
1 51 8 56 15 4 8 27 16 50 19 23 3 44 10 47 14 3 5 18 9 35 9 18 0 33 7 41 20
7 11 23 20 36 20 12 0 25 6 28 14 3 8 25 19 48 25 31 8 45 17 49 32 5 17 11
20 32 17 20 -4 29 1 43 24 16 28 62 58 87 58 7 0 20 11 29 25 16 24 263 271
298 297 9 7 29 48 43 92 22 64 25 83 16 103 -6 13 -11 33 -11 44 0 19 -37 80
-53 87 -4 2 -22 17 -39 32 -17 16 -36 26 -43 24 -7 -3 -15 2 -18 10 -4 9 -16
16 -27 16 -12 0 -30 9 -42 20 -12 11 -30 20 -41 20 -10 0 -31 14 -45 30 -15
17 -36 30 -48 30 -15 0 -29 12 -43 35 -12 20 -28 35 -39 35 -26 0 -100 56
-114 85 -6 14 -17 25 -24 25 -45 0 -514 473 -514 519 0 6 -13 17 -29 26 -16 8
-43 31 -60 52 -30 37 -30 37 -11 58 10 11 23 32 29 48 8 20 17 27 36 27 14 0
28 -7 31 -15 4 -8 17 -15 30 -15 14 0 27 -7 30 -15 4 -8 17 -15 29 -15 13 0
27 -4 30 -10 3 -5 17 -10 29 -10 13 0 30 -9 37 -20 8 -11 25 -21 38 -22 14 -2
33 -11 43 -20 10 -10 25 -15 33 -12 9 4 21 -1 29 -11 8 -11 20 -16 30 -12 10
4 21 -1 28 -13 9 -13 24 -20 46 -20 20 0 35 -6 39 -16 4 -11 13 -14 29 -10 17
5 27 1 36 -14 9 -14 24 -20 49 -20 25 0 39 -5 43 -16 5 -12 16 -15 42 -12 27
3 38 0 45 -14 7 -13 21 -18 48 -18 27 0 41 -5 45 -16 5 -12 14 -15 40 -10 24
5 39 1 58 -13 17 -14 38 -19 72 -18 36 2 50 -2 57 -16 8 -14 19 -16 63 -11 42
5 56 3 70 -12 16 -16 39 -18 211 -18 167 0 195 3 210 17 9 9 32 17 51 17 19 0
34 5 34 10 0 6 11 15 25 20 14 5 30 21 37 35 6 14 14 25 18 25 4 0 15 21 24
48 9 26 23 61 31 77 7 17 16 47 20 67 3 20 10 38 16 40 14 5 23 133 23 323 0
243 -7 338 -24 352 -10 8 -15 29 -14 72 1 42 -3 61 -11 61 -13 0 -25 31 -25
66 0 12 -7 34 -14 50 -8 15 -13 31 -10 35 4 7 -47 111 -68 137 -6 6 -18 12
-28 12 -10 0 -20 7 -23 15 -5 11 -26 14 -102 13 -82 -2 -98 -5 -106 -20 -6
-11 -21 -18 -37 -18 -17 0 -34 -9 -46 -25 -10 -14 -27 -25 -38 -25 -10 0 -21
-7 -24 -15 -4 -8 -17 -15 -30 -15 -14 0 -27 -7 -30 -15 -4 -8 -17 -15 -30 -15
-14 0 -27 -7 -30 -15 -4 -9 -19 -15 -39 -15 -25 0 -34 -5 -38 -21 -5 -18 -11
-20 -33 -15 -18 5 -30 3 -35 -6 -4 -7 -22 -13 -40 -14 -18 -1 -36 -9 -40 -17
-6 -9 -23 -15 -45 -15 -20 0 -40 -6 -45 -13 -5 -8 -24 -14 -43 -15 -19 -1 -46
-11 -61 -22 -19 -15 -35 -20 -56 -15 -21 4 -36 0 -50 -13 -13 -12 -34 -18 -61
-17 -25 1 -46 -4 -56 -14 -12 -11 -27 -14 -58 -9 -33 4 -47 1 -60 -12 -12 -12
-37 -18 -82 -19 -40 -1 -68 -7 -73 -15 -5 -8 -31 -13 -72 -13 -35 0 -70 -5
-78 -11 -8 -6 -26 -14 -41 -18 -25 -6 -29 -2 -52 45 -15 28 -26 57 -26 64 0
17 36 38 50 30 5 -3 19 8 31 25 14 19 32 30 46 30 16 0 30 10 41 30 16 28 27
34 60 33 7 -1 21 12 32 27 11 16 36 34 55 40 19 6 35 17 35 24 0 16 83 76 104
76 8 0 27 15 41 34 26 35 67 67 89 70 19 3 344 318 391 380 39 50 54 66 65 66
5 0 20 25 34 55 14 30 29 55 34 55 6 0 15 12 21 28 6 15 20 43 30 62 43 78 52
108 58 191 6 86 5 88 -26 135 -17 26 -31 52 -31 58 0 17 -253 260 -272 261
-10 1 -27 14 -38 28 -13 16 -31 27 -46 27 -13 0 -29 9 -36 20 -7 11 -22 20
-34 20 -12 0 -24 7 -28 15 -3 8 -17 15 -31 15 -16 0 -25 6 -25 15 0 10 -10 15
-29 15 -17 0 -33 5 -36 10 -3 6 -17 10 -30 10 -14 0 -29 9 -35 21 -8 14 -20
20 -38 19 -44 -3 -52 -1 -52 16 0 13 -7 15 -39 9 -33 -5 -41 -3 -54 15 -12 17
-23 21 -60 19 -30 -2 -53 3 -64 12 -13 11 -41 15 -103 15 -92 -1 -90 0 -165
-76 -19 -19 -35 -43 -35 -52 0 -9 -4 -19 -9 -22 -4 -3 -6 -57 -3 -120 4 -99 2
-117 -12 -132 -11 -11 -15 -25 -11 -38 16 -53 8 -129 -16 -157 -14 -17 -18
-30 -13 -49 9 -31 6 -80 -5 -94 -5 -6 -11 -36 -15 -66 -4 -30 -11 -59 -15 -65
-5 -5 -11 -30 -14 -55 -3 -24 -13 -49 -21 -56 -10 -7 -15 -25 -14 -47 1 -20
-3 -42 -9 -49 -6 -7 -13 -26 -16 -43 -6 -35 -24 -89 -43 -128 -8 -16 -14 -39
-14 -52 0 -13 -7 -30 -15 -39 -8 -8 -15 -26 -15 -40 0 -14 -9 -35 -20 -46 -11
-11 -20 -33 -20 -49 0 -17 -4 -33 -10 -36 -5 -3 -10 -17 -10 -31 0 -13 -9 -29
-20 -36 -12 -8 -20 -24 -20 -40 0 -21 -5 -28 -20 -28 -11 0 -23 7 -26 15 -5
12 -25 15 -90 15 l-84 0 -1 38 c-1 20 -1 54 1 76 1 23 -3 42 -11 47 -9 5 -16
40 -20 96 -3 48 -7 84 -8 78 -6 -24 -28 63 -24 91 3 20 -1 41 -12 57 -10 15
-17 46 -17 73 0 27 -6 53 -14 61 -8 8 -14 31 -14 51 0 20 -7 46 -15 56 -8 11
-15 34 -15 51 0 17 -7 40 -15 51 -8 10 -15 33 -15 50 0 17 -7 37 -15 44 -8 7
-15 27 -15 45 0 18 -7 38 -15 45 -8 7 -15 25 -15 41 0 15 -4 31 -10 34 -5 3
-10 18 -10 33 0 16 -8 32 -20 40 -11 7 -20 18 -20 25 0 7 -18 46 -40 87 -22
41 -49 94 -59 118 -11 23 -25 42 -30 42 -6 0 -18 14 -27 32 -25 48 -87 128
-99 128 -22 0 -65 26 -70 42 -5 15 -21 17 -125 15 -97 -1 -122 -4 -140 -19z
m1020 -1963 c11 -10 27 -14 42 -10 16 4 29 1 37 -9 8 -9 21 -16 31 -16 9 0 22
-11 28 -25 7 -14 20 -29 29 -32 23 -8 83 -73 83 -89 0 -6 6 -17 14 -23 16 -13
25 -56 33 -150 5 -66 -5 -117 -35 -181 -19 -39 -148 -170 -167 -170 -7 0 -15
-7 -18 -14 -4 -11 -16 -13 -41 -9 -27 4 -37 2 -42 -11 -5 -13 -21 -16 -81 -16
-47 0 -72 4 -68 10 7 11 -4 13 -46 10 -17 -1 -36 8 -52 24 -15 14 -33 26 -42
26 -39 0 -125 94 -125 137 0 10 -10 24 -21 31 -18 12 -21 21 -16 57 3 33 1 45
-10 50 -12 4 -14 15 -9 48 4 23 9 60 12 82 3 22 14 49 24 60 9 11 21 33 24 50
9 36 96 125 123 125 11 0 28 9 37 19 11 12 25 17 38 13 13 -3 26 1 32 11 23
30 154 31 186 2z"/>
</g>
</svg>
